<mxfile host="app.diagrams.net" agent="Mozilla/5.0 (Windows NT 10.0; Win64; x64) AppleWebKit/537.36 (KHTML, like Gecko) Chrome/135.0.0.0 Safari/537.36" version="26.2.12">
  <diagram id="C5RBs43oDa-KdzZeNtuy" name="Page-1">
    <mxGraphModel dx="1751" dy="944" grid="1" gridSize="10" guides="1" tooltips="1" connect="1" arrows="1" fold="1" page="1" pageScale="1" pageWidth="827" pageHeight="1169" math="0" shadow="0">
      <root>
        <mxCell id="WIyWlLk6GJQsqaUBKTNV-0" />
        <mxCell id="WIyWlLk6GJQsqaUBKTNV-1" parent="WIyWlLk6GJQsqaUBKTNV-0" />
        <mxCell id="VwcqUrDGhT0xPsgYFYOW-0" value="UserInterface" style="swimlane;fontStyle=1;align=center;verticalAlign=top;childLayout=stackLayout;horizontal=1;startSize=34.54545454545455;horizontalStack=0;resizeParent=1;resizeParentMax=0;resizeLast=0;collapsible=0;marginBottom=0;" vertex="1" parent="WIyWlLk6GJQsqaUBKTNV-1">
          <mxGeometry x="104" y="20" width="337" height="182.54545454545456" as="geometry" />
        </mxCell>
        <mxCell id="VwcqUrDGhT0xPsgYFYOW-1" style="line;strokeWidth=1;fillColor=none;align=left;verticalAlign=middle;spacingTop=-1;spacingLeft=3;spacingRight=3;rotatable=0;labelPosition=right;points=[];portConstraint=eastwest;strokeColor=inherit;" vertex="1" parent="VwcqUrDGhT0xPsgYFYOW-0">
          <mxGeometry y="34.54545454545455" width="337" height="8" as="geometry" />
        </mxCell>
        <mxCell id="VwcqUrDGhT0xPsgYFYOW-2" value="+uploadImage() : : void" style="text;strokeColor=none;fillColor=none;align=left;verticalAlign=top;spacingLeft=4;spacingRight=4;overflow=hidden;rotatable=0;points=[[0,0.5],[1,0.5]];portConstraint=eastwest;" vertex="1" parent="VwcqUrDGhT0xPsgYFYOW-0">
          <mxGeometry y="42.54545454545455" width="337" height="35" as="geometry" />
        </mxCell>
        <mxCell id="VwcqUrDGhT0xPsgYFYOW-3" value="+viewResults() : : void" style="text;strokeColor=none;fillColor=none;align=left;verticalAlign=top;spacingLeft=4;spacingRight=4;overflow=hidden;rotatable=0;points=[[0,0.5],[1,0.5]];portConstraint=eastwest;" vertex="1" parent="VwcqUrDGhT0xPsgYFYOW-0">
          <mxGeometry y="77.54545454545455" width="337" height="35" as="geometry" />
        </mxCell>
        <mxCell id="VwcqUrDGhT0xPsgYFYOW-4" value="+downloadAnnotatedImage() : : void" style="text;strokeColor=none;fillColor=none;align=left;verticalAlign=top;spacingLeft=4;spacingRight=4;overflow=hidden;rotatable=0;points=[[0,0.5],[1,0.5]];portConstraint=eastwest;" vertex="1" parent="VwcqUrDGhT0xPsgYFYOW-0">
          <mxGeometry y="112.54545454545455" width="337" height="35" as="geometry" />
        </mxCell>
        <mxCell id="VwcqUrDGhT0xPsgYFYOW-5" value="+downloadReport() : : void" style="text;strokeColor=none;fillColor=none;align=left;verticalAlign=top;spacingLeft=4;spacingRight=4;overflow=hidden;rotatable=0;points=[[0,0.5],[1,0.5]];portConstraint=eastwest;" vertex="1" parent="VwcqUrDGhT0xPsgYFYOW-0">
          <mxGeometry y="147.54545454545456" width="337" height="35" as="geometry" />
        </mxCell>
        <mxCell id="VwcqUrDGhT0xPsgYFYOW-6" value="DeploymentManager" style="swimlane;fontStyle=1;align=center;verticalAlign=top;childLayout=stackLayout;horizontal=1;startSize=36.888888888888886;horizontalStack=0;resizeParent=1;resizeParentMax=0;resizeLast=0;collapsible=0;marginBottom=0;" vertex="1" parent="WIyWlLk6GJQsqaUBKTNV-1">
          <mxGeometry x="507" y="1265" width="324" height="155.88888888888889" as="geometry" />
        </mxCell>
        <mxCell id="VwcqUrDGhT0xPsgYFYOW-7" style="line;strokeWidth=1;fillColor=none;align=left;verticalAlign=middle;spacingTop=-1;spacingLeft=3;spacingRight=3;rotatable=0;labelPosition=right;points=[];portConstraint=eastwest;strokeColor=inherit;" vertex="1" parent="VwcqUrDGhT0xPsgYFYOW-6">
          <mxGeometry y="36.888888888888886" width="324" height="8" as="geometry" />
        </mxCell>
        <mxCell id="VwcqUrDGhT0xPsgYFYOW-8" value="+deployModel() : : void" style="text;strokeColor=none;fillColor=none;align=left;verticalAlign=top;spacingLeft=4;spacingRight=4;overflow=hidden;rotatable=0;points=[[0,0.5],[1,0.5]];portConstraint=eastwest;" vertex="1" parent="VwcqUrDGhT0xPsgYFYOW-6">
          <mxGeometry y="44.888888888888886" width="324" height="37" as="geometry" />
        </mxCell>
        <mxCell id="VwcqUrDGhT0xPsgYFYOW-9" value="+updateModel() : : void" style="text;strokeColor=none;fillColor=none;align=left;verticalAlign=top;spacingLeft=4;spacingRight=4;overflow=hidden;rotatable=0;points=[[0,0.5],[1,0.5]];portConstraint=eastwest;" vertex="1" parent="VwcqUrDGhT0xPsgYFYOW-6">
          <mxGeometry y="81.88888888888889" width="324" height="37" as="geometry" />
        </mxCell>
        <mxCell id="VwcqUrDGhT0xPsgYFYOW-10" value="+monitorPerformance() : : void" style="text;strokeColor=none;fillColor=none;align=left;verticalAlign=top;spacingLeft=4;spacingRight=4;overflow=hidden;rotatable=0;points=[[0,0.5],[1,0.5]];portConstraint=eastwest;" vertex="1" parent="VwcqUrDGhT0xPsgYFYOW-6">
          <mxGeometry y="118.88888888888889" width="324" height="37" as="geometry" />
        </mxCell>
        <mxCell id="VwcqUrDGhT0xPsgYFYOW-11" value="DataCollector" style="swimlane;fontStyle=1;align=center;verticalAlign=top;childLayout=stackLayout;horizontal=1;startSize=36.888888888888886;horizontalStack=0;resizeParent=1;resizeParentMax=0;resizeLast=0;collapsible=0;marginBottom=0;" vertex="1" parent="WIyWlLk6GJQsqaUBKTNV-1">
          <mxGeometry x="225" y="291" width="324" height="155.88888888888889" as="geometry" />
        </mxCell>
        <mxCell id="VwcqUrDGhT0xPsgYFYOW-12" style="line;strokeWidth=1;fillColor=none;align=left;verticalAlign=middle;spacingTop=-1;spacingLeft=3;spacingRight=3;rotatable=0;labelPosition=right;points=[];portConstraint=eastwest;strokeColor=inherit;" vertex="1" parent="VwcqUrDGhT0xPsgYFYOW-11">
          <mxGeometry y="36.888888888888886" width="324" height="8" as="geometry" />
        </mxCell>
        <mxCell id="VwcqUrDGhT0xPsgYFYOW-13" value="+fetchFromDatasets() : : List&lt;img&gt;" style="text;strokeColor=none;fillColor=none;align=left;verticalAlign=top;spacingLeft=4;spacingRight=4;overflow=hidden;rotatable=0;points=[[0,0.5],[1,0.5]];portConstraint=eastwest;" vertex="1" parent="VwcqUrDGhT0xPsgYFYOW-11">
          <mxGeometry y="44.888888888888886" width="324" height="37" as="geometry" />
        </mxCell>
        <mxCell id="VwcqUrDGhT0xPsgYFYOW-14" value="+scrapeWebImages() : : List&lt;img&gt;" style="text;strokeColor=none;fillColor=none;align=left;verticalAlign=top;spacingLeft=4;spacingRight=4;overflow=hidden;rotatable=0;points=[[0,0.5],[1,0.5]];portConstraint=eastwest;" vertex="1" parent="VwcqUrDGhT0xPsgYFYOW-11">
          <mxGeometry y="81.88888888888889" width="324" height="37" as="geometry" />
        </mxCell>
        <mxCell id="VwcqUrDGhT0xPsgYFYOW-15" value="+consultExperts() : : void" style="text;strokeColor=none;fillColor=none;align=left;verticalAlign=top;spacingLeft=4;spacingRight=4;overflow=hidden;rotatable=0;points=[[0,0.5],[1,0.5]];portConstraint=eastwest;" vertex="1" parent="VwcqUrDGhT0xPsgYFYOW-11">
          <mxGeometry y="118.88888888888889" width="324" height="37" as="geometry" />
        </mxCell>
        <mxCell id="VwcqUrDGhT0xPsgYFYOW-16" value="Annotator" style="swimlane;fontStyle=1;align=center;verticalAlign=top;childLayout=stackLayout;horizontal=1;startSize=40.57142857142857;horizontalStack=0;resizeParent=1;resizeParentMax=0;resizeLast=0;collapsible=0;marginBottom=0;" vertex="1" parent="WIyWlLk6GJQsqaUBKTNV-1">
          <mxGeometry x="94" y="537" width="357" height="130.57142857142856" as="geometry" />
        </mxCell>
        <mxCell id="VwcqUrDGhT0xPsgYFYOW-17" style="line;strokeWidth=1;fillColor=none;align=left;verticalAlign=middle;spacingTop=-1;spacingLeft=3;spacingRight=3;rotatable=0;labelPosition=right;points=[];portConstraint=eastwest;strokeColor=inherit;" vertex="1" parent="VwcqUrDGhT0xPsgYFYOW-16">
          <mxGeometry y="40.57142857142857" width="357" height="8" as="geometry" />
        </mxCell>
        <mxCell id="VwcqUrDGhT0xPsgYFYOW-18" value="+labelDefects(image) : : AnnotatedImage" style="text;strokeColor=none;fillColor=none;align=left;verticalAlign=top;spacingLeft=4;spacingRight=4;overflow=hidden;rotatable=0;points=[[0,0.5],[1,0.5]];portConstraint=eastwest;" vertex="1" parent="VwcqUrDGhT0xPsgYFYOW-16">
          <mxGeometry y="48.57142857142857" width="357" height="41" as="geometry" />
        </mxCell>
        <mxCell id="VwcqUrDGhT0xPsgYFYOW-19" value="+exportAnnotations() : : JSON" style="text;strokeColor=none;fillColor=none;align=left;verticalAlign=top;spacingLeft=4;spacingRight=4;overflow=hidden;rotatable=0;points=[[0,0.5],[1,0.5]];portConstraint=eastwest;" vertex="1" parent="VwcqUrDGhT0xPsgYFYOW-16">
          <mxGeometry y="89.57142857142857" width="357" height="41" as="geometry" />
        </mxCell>
        <mxCell id="VwcqUrDGhT0xPsgYFYOW-20" value="Preprocessor" style="swimlane;fontStyle=1;align=center;verticalAlign=top;childLayout=stackLayout;horizontal=1;startSize=36.888888888888886;horizontalStack=0;resizeParent=1;resizeParentMax=0;resizeLast=0;collapsible=0;marginBottom=0;" vertex="1" parent="WIyWlLk6GJQsqaUBKTNV-1">
          <mxGeometry x="126" y="760" width="293" height="155.88888888888889" as="geometry" />
        </mxCell>
        <mxCell id="VwcqUrDGhT0xPsgYFYOW-21" style="line;strokeWidth=1;fillColor=none;align=left;verticalAlign=middle;spacingTop=-1;spacingLeft=3;spacingRight=3;rotatable=0;labelPosition=right;points=[];portConstraint=eastwest;strokeColor=inherit;" vertex="1" parent="VwcqUrDGhT0xPsgYFYOW-20">
          <mxGeometry y="36.888888888888886" width="293" height="8" as="geometry" />
        </mxCell>
        <mxCell id="VwcqUrDGhT0xPsgYFYOW-22" value="+resize(image) : : Image" style="text;strokeColor=none;fillColor=none;align=left;verticalAlign=top;spacingLeft=4;spacingRight=4;overflow=hidden;rotatable=0;points=[[0,0.5],[1,0.5]];portConstraint=eastwest;" vertex="1" parent="VwcqUrDGhT0xPsgYFYOW-20">
          <mxGeometry y="44.888888888888886" width="293" height="37" as="geometry" />
        </mxCell>
        <mxCell id="VwcqUrDGhT0xPsgYFYOW-23" value="+normalize(image) : : Image" style="text;strokeColor=none;fillColor=none;align=left;verticalAlign=top;spacingLeft=4;spacingRight=4;overflow=hidden;rotatable=0;points=[[0,0.5],[1,0.5]];portConstraint=eastwest;" vertex="1" parent="VwcqUrDGhT0xPsgYFYOW-20">
          <mxGeometry y="81.88888888888889" width="293" height="37" as="geometry" />
        </mxCell>
        <mxCell id="VwcqUrDGhT0xPsgYFYOW-24" value="+augment(image) : : List&lt;img&gt;" style="text;strokeColor=none;fillColor=none;align=left;verticalAlign=top;spacingLeft=4;spacingRight=4;overflow=hidden;rotatable=0;points=[[0,0.5],[1,0.5]];portConstraint=eastwest;" vertex="1" parent="VwcqUrDGhT0xPsgYFYOW-20">
          <mxGeometry y="118.88888888888889" width="293" height="37" as="geometry" />
        </mxCell>
        <mxCell id="VwcqUrDGhT0xPsgYFYOW-25" value="FeatureExtractor" style="swimlane;fontStyle=1;align=center;verticalAlign=top;childLayout=stackLayout;horizontal=1;startSize=36.888888888888886;horizontalStack=0;resizeParent=1;resizeParentMax=0;resizeLast=0;collapsible=0;marginBottom=0;" vertex="1" parent="WIyWlLk6GJQsqaUBKTNV-1">
          <mxGeometry x="86" y="1007" width="374" height="155.88888888888889" as="geometry" />
        </mxCell>
        <mxCell id="VwcqUrDGhT0xPsgYFYOW-26" style="line;strokeWidth=1;fillColor=none;align=left;verticalAlign=middle;spacingTop=-1;spacingLeft=3;spacingRight=3;rotatable=0;labelPosition=right;points=[];portConstraint=eastwest;strokeColor=inherit;" vertex="1" parent="VwcqUrDGhT0xPsgYFYOW-25">
          <mxGeometry y="36.888888888888886" width="374" height="8" as="geometry" />
        </mxCell>
        <mxCell id="VwcqUrDGhT0xPsgYFYOW-27" value="+extractEdges(image) : : FeatureMap" style="text;strokeColor=none;fillColor=none;align=left;verticalAlign=top;spacingLeft=4;spacingRight=4;overflow=hidden;rotatable=0;points=[[0,0.5],[1,0.5]];portConstraint=eastwest;" vertex="1" parent="VwcqUrDGhT0xPsgYFYOW-25">
          <mxGeometry y="44.888888888888886" width="374" height="37" as="geometry" />
        </mxCell>
        <mxCell id="VwcqUrDGhT0xPsgYFYOW-28" value="+extractTextures(image) : : FeatureMap" style="text;strokeColor=none;fillColor=none;align=left;verticalAlign=top;spacingLeft=4;spacingRight=4;overflow=hidden;rotatable=0;points=[[0,0.5],[1,0.5]];portConstraint=eastwest;" vertex="1" parent="VwcqUrDGhT0xPsgYFYOW-25">
          <mxGeometry y="81.88888888888889" width="374" height="37" as="geometry" />
        </mxCell>
        <mxCell id="VwcqUrDGhT0xPsgYFYOW-29" value="+prepareFeatures() : : List" style="text;strokeColor=none;fillColor=none;align=left;verticalAlign=top;spacingLeft=4;spacingRight=4;overflow=hidden;rotatable=0;points=[[0,0.5],[1,0.5]];portConstraint=eastwest;" vertex="1" parent="VwcqUrDGhT0xPsgYFYOW-25">
          <mxGeometry y="118.88888888888889" width="374" height="37" as="geometry" />
        </mxCell>
        <mxCell id="VwcqUrDGhT0xPsgYFYOW-30" value="ModelTrainer" style="swimlane;fontStyle=1;align=center;verticalAlign=top;childLayout=stackLayout;horizontal=1;startSize=34.54545454545455;horizontalStack=0;resizeParent=1;resizeParentMax=0;resizeLast=0;collapsible=0;marginBottom=0;" vertex="1" parent="WIyWlLk6GJQsqaUBKTNV-1">
          <mxGeometry x="120" y="1253" width="305" height="182.54545454545456" as="geometry" />
        </mxCell>
        <mxCell id="VwcqUrDGhT0xPsgYFYOW-31" style="line;strokeWidth=1;fillColor=none;align=left;verticalAlign=middle;spacingTop=-1;spacingLeft=3;spacingRight=3;rotatable=0;labelPosition=right;points=[];portConstraint=eastwest;strokeColor=inherit;" vertex="1" parent="VwcqUrDGhT0xPsgYFYOW-30">
          <mxGeometry y="34.54545454545455" width="305" height="8" as="geometry" />
        </mxCell>
        <mxCell id="VwcqUrDGhT0xPsgYFYOW-32" value="+loadPretrainedModel() : : void" style="text;strokeColor=none;fillColor=none;align=left;verticalAlign=top;spacingLeft=4;spacingRight=4;overflow=hidden;rotatable=0;points=[[0,0.5],[1,0.5]];portConstraint=eastwest;" vertex="1" parent="VwcqUrDGhT0xPsgYFYOW-30">
          <mxGeometry y="42.54545454545455" width="305" height="35" as="geometry" />
        </mxCell>
        <mxCell id="VwcqUrDGhT0xPsgYFYOW-33" value="+trainModel(data) : : Model" style="text;strokeColor=none;fillColor=none;align=left;verticalAlign=top;spacingLeft=4;spacingRight=4;overflow=hidden;rotatable=0;points=[[0,0.5],[1,0.5]];portConstraint=eastwest;" vertex="1" parent="VwcqUrDGhT0xPsgYFYOW-30">
          <mxGeometry y="77.54545454545455" width="305" height="35" as="geometry" />
        </mxCell>
        <mxCell id="VwcqUrDGhT0xPsgYFYOW-34" value="+tuneHyperparameters() : : void" style="text;strokeColor=none;fillColor=none;align=left;verticalAlign=top;spacingLeft=4;spacingRight=4;overflow=hidden;rotatable=0;points=[[0,0.5],[1,0.5]];portConstraint=eastwest;" vertex="1" parent="VwcqUrDGhT0xPsgYFYOW-30">
          <mxGeometry y="112.54545454545455" width="305" height="35" as="geometry" />
        </mxCell>
        <mxCell id="VwcqUrDGhT0xPsgYFYOW-35" value="+evaluateModel() : : Report" style="text;strokeColor=none;fillColor=none;align=left;verticalAlign=top;spacingLeft=4;spacingRight=4;overflow=hidden;rotatable=0;points=[[0,0.5],[1,0.5]];portConstraint=eastwest;" vertex="1" parent="VwcqUrDGhT0xPsgYFYOW-30">
          <mxGeometry y="147.54545454545456" width="305" height="35" as="geometry" />
        </mxCell>
        <mxCell id="VwcqUrDGhT0xPsgYFYOW-36" value="Model" style="swimlane;fontStyle=1;align=center;verticalAlign=top;childLayout=stackLayout;horizontal=1;startSize=40.57142857142857;horizontalStack=0;resizeParent=1;resizeParentMax=0;resizeLast=0;collapsible=0;marginBottom=0;" vertex="1" parent="WIyWlLk6GJQsqaUBKTNV-1">
          <mxGeometry x="321" y="1524" width="267" height="130.57142857142856" as="geometry" />
        </mxCell>
        <mxCell id="VwcqUrDGhT0xPsgYFYOW-37" style="line;strokeWidth=1;fillColor=none;align=left;verticalAlign=middle;spacingTop=-1;spacingLeft=3;spacingRight=3;rotatable=0;labelPosition=right;points=[];portConstraint=eastwest;strokeColor=inherit;" vertex="1" parent="VwcqUrDGhT0xPsgYFYOW-36">
          <mxGeometry y="40.57142857142857" width="267" height="8" as="geometry" />
        </mxCell>
        <mxCell id="VwcqUrDGhT0xPsgYFYOW-38" value="+predict(image) : : DefectData" style="text;strokeColor=none;fillColor=none;align=left;verticalAlign=top;spacingLeft=4;spacingRight=4;overflow=hidden;rotatable=0;points=[[0,0.5],[1,0.5]];portConstraint=eastwest;" vertex="1" parent="VwcqUrDGhT0xPsgYFYOW-36">
          <mxGeometry y="48.57142857142857" width="267" height="41" as="geometry" />
        </mxCell>
        <mxCell id="VwcqUrDGhT0xPsgYFYOW-39" value="+loadWeights(file) : : void" style="text;strokeColor=none;fillColor=none;align=left;verticalAlign=top;spacingLeft=4;spacingRight=4;overflow=hidden;rotatable=0;points=[[0,0.5],[1,0.5]];portConstraint=eastwest;" vertex="1" parent="VwcqUrDGhT0xPsgYFYOW-36">
          <mxGeometry y="89.57142857142857" width="267" height="41" as="geometry" />
        </mxCell>
        <mxCell id="VwcqUrDGhT0xPsgYFYOW-40" value="DefectDetector" style="swimlane;fontStyle=1;align=center;verticalAlign=top;childLayout=stackLayout;horizontal=1;startSize=36.888888888888886;horizontalStack=0;resizeParent=1;resizeParentMax=0;resizeLast=0;collapsible=0;marginBottom=0;" vertex="1" parent="WIyWlLk6GJQsqaUBKTNV-1">
          <mxGeometry x="294" y="1747" width="322" height="155.88888888888889" as="geometry" />
        </mxCell>
        <mxCell id="VwcqUrDGhT0xPsgYFYOW-41" style="line;strokeWidth=1;fillColor=none;align=left;verticalAlign=middle;spacingTop=-1;spacingLeft=3;spacingRight=3;rotatable=0;labelPosition=right;points=[];portConstraint=eastwest;strokeColor=inherit;" vertex="1" parent="VwcqUrDGhT0xPsgYFYOW-40">
          <mxGeometry y="36.888888888888886" width="322" height="8" as="geometry" />
        </mxCell>
        <mxCell id="VwcqUrDGhT0xPsgYFYOW-42" value="+detectDefects(image) : : List" style="text;strokeColor=none;fillColor=none;align=left;verticalAlign=top;spacingLeft=4;spacingRight=4;overflow=hidden;rotatable=0;points=[[0,0.5],[1,0.5]];portConstraint=eastwest;" vertex="1" parent="VwcqUrDGhT0xPsgYFYOW-40">
          <mxGeometry y="44.888888888888886" width="322" height="37" as="geometry" />
        </mxCell>
        <mxCell id="VwcqUrDGhT0xPsgYFYOW-43" value="+classifyDefects() : : String" style="text;strokeColor=none;fillColor=none;align=left;verticalAlign=top;spacingLeft=4;spacingRight=4;overflow=hidden;rotatable=0;points=[[0,0.5],[1,0.5]];portConstraint=eastwest;" vertex="1" parent="VwcqUrDGhT0xPsgYFYOW-40">
          <mxGeometry y="81.88888888888889" width="322" height="37" as="geometry" />
        </mxCell>
        <mxCell id="VwcqUrDGhT0xPsgYFYOW-44" value="+localizeDefects() : : Coordinates" style="text;strokeColor=none;fillColor=none;align=left;verticalAlign=top;spacingLeft=4;spacingRight=4;overflow=hidden;rotatable=0;points=[[0,0.5],[1,0.5]];portConstraint=eastwest;" vertex="1" parent="VwcqUrDGhT0xPsgYFYOW-40">
          <mxGeometry y="118.88888888888889" width="322" height="37" as="geometry" />
        </mxCell>
        <mxCell id="VwcqUrDGhT0xPsgYFYOW-45" value="Visualizer" style="swimlane;fontStyle=1;align=center;verticalAlign=top;childLayout=stackLayout;horizontal=1;startSize=40.57142857142857;horizontalStack=0;resizeParent=1;resizeParentMax=0;resizeLast=0;collapsible=0;marginBottom=0;" vertex="1" parent="WIyWlLk6GJQsqaUBKTNV-1">
          <mxGeometry x="274" y="1993" width="362" height="130.57142857142856" as="geometry" />
        </mxCell>
        <mxCell id="VwcqUrDGhT0xPsgYFYOW-46" style="line;strokeWidth=1;fillColor=none;align=left;verticalAlign=middle;spacingTop=-1;spacingLeft=3;spacingRight=3;rotatable=0;labelPosition=right;points=[];portConstraint=eastwest;strokeColor=inherit;" vertex="1" parent="VwcqUrDGhT0xPsgYFYOW-45">
          <mxGeometry y="40.57142857142857" width="362" height="8" as="geometry" />
        </mxCell>
        <mxCell id="VwcqUrDGhT0xPsgYFYOW-47" value="+overlayBoundingBoxes(defects) : : Image" style="text;strokeColor=none;fillColor=none;align=left;verticalAlign=top;spacingLeft=4;spacingRight=4;overflow=hidden;rotatable=0;points=[[0,0.5],[1,0.5]];portConstraint=eastwest;" vertex="1" parent="VwcqUrDGhT0xPsgYFYOW-45">
          <mxGeometry y="48.57142857142857" width="362" height="41" as="geometry" />
        </mxCell>
        <mxCell id="VwcqUrDGhT0xPsgYFYOW-48" value="+generateGradCAM() : : Heatmap" style="text;strokeColor=none;fillColor=none;align=left;verticalAlign=top;spacingLeft=4;spacingRight=4;overflow=hidden;rotatable=0;points=[[0,0.5],[1,0.5]];portConstraint=eastwest;" vertex="1" parent="VwcqUrDGhT0xPsgYFYOW-45">
          <mxGeometry y="89.57142857142857" width="362" height="41" as="geometry" />
        </mxCell>
        <mxCell id="VwcqUrDGhT0xPsgYFYOW-49" value="ReportGenerator" style="swimlane;fontStyle=1;align=center;verticalAlign=top;childLayout=stackLayout;horizontal=1;startSize=36.888888888888886;horizontalStack=0;resizeParent=1;resizeParentMax=0;resizeLast=0;collapsible=0;marginBottom=0;" vertex="1" parent="WIyWlLk6GJQsqaUBKTNV-1">
          <mxGeometry x="188" y="2216" width="312" height="155.88888888888889" as="geometry" />
        </mxCell>
        <mxCell id="VwcqUrDGhT0xPsgYFYOW-50" style="line;strokeWidth=1;fillColor=none;align=left;verticalAlign=middle;spacingTop=-1;spacingLeft=3;spacingRight=3;rotatable=0;labelPosition=right;points=[];portConstraint=eastwest;strokeColor=inherit;" vertex="1" parent="VwcqUrDGhT0xPsgYFYOW-49">
          <mxGeometry y="36.888888888888886" width="312" height="8" as="geometry" />
        </mxCell>
        <mxCell id="VwcqUrDGhT0xPsgYFYOW-51" value="+createPDF() : : File" style="text;strokeColor=none;fillColor=none;align=left;verticalAlign=top;spacingLeft=4;spacingRight=4;overflow=hidden;rotatable=0;points=[[0,0.5],[1,0.5]];portConstraint=eastwest;" vertex="1" parent="VwcqUrDGhT0xPsgYFYOW-49">
          <mxGeometry y="44.888888888888886" width="312" height="37" as="geometry" />
        </mxCell>
        <mxCell id="VwcqUrDGhT0xPsgYFYOW-52" value="+includeDefectDetails() : : void" style="text;strokeColor=none;fillColor=none;align=left;verticalAlign=top;spacingLeft=4;spacingRight=4;overflow=hidden;rotatable=0;points=[[0,0.5],[1,0.5]];portConstraint=eastwest;" vertex="1" parent="VwcqUrDGhT0xPsgYFYOW-49">
          <mxGeometry y="81.88888888888889" width="312" height="37" as="geometry" />
        </mxCell>
        <mxCell id="VwcqUrDGhT0xPsgYFYOW-53" value="+addTimestamp() : : void" style="text;strokeColor=none;fillColor=none;align=left;verticalAlign=top;spacingLeft=4;spacingRight=4;overflow=hidden;rotatable=0;points=[[0,0.5],[1,0.5]];portConstraint=eastwest;" vertex="1" parent="VwcqUrDGhT0xPsgYFYOW-49">
          <mxGeometry y="118.88888888888889" width="312" height="37" as="geometry" />
        </mxCell>
        <mxCell id="VwcqUrDGhT0xPsgYFYOW-54" value="uses" style="startArrow=none;endArrow=open;endSize=12;exitX=0.75;exitY=1;entryX=0.5;entryY=0;rounded=0;edgeStyle=orthogonalEdgeStyle;" edge="1" parent="WIyWlLk6GJQsqaUBKTNV-1" source="VwcqUrDGhT0xPsgYFYOW-0" target="VwcqUrDGhT0xPsgYFYOW-11">
          <mxGeometry relative="1" as="geometry" />
        </mxCell>
        <mxCell id="VwcqUrDGhT0xPsgYFYOW-55" value="accesses" style="startArrow=none;endArrow=open;endSize=12;exitX=0.25;exitY=1;entryX=0.28;entryY=0;rounded=0;edgeStyle=orthogonalEdgeStyle;" edge="1" parent="WIyWlLk6GJQsqaUBKTNV-1" source="VwcqUrDGhT0xPsgYFYOW-0" target="VwcqUrDGhT0xPsgYFYOW-16">
          <mxGeometry relative="1" as="geometry" />
        </mxCell>
        <mxCell id="VwcqUrDGhT0xPsgYFYOW-56" value="triggers" style="startArrow=none;endArrow=open;endSize=12;exitX=0;exitY=0.96;entryX=0;entryY=0.16;rounded=0;edgeStyle=orthogonalEdgeStyle;" edge="1" parent="WIyWlLk6GJQsqaUBKTNV-1" source="VwcqUrDGhT0xPsgYFYOW-0" target="VwcqUrDGhT0xPsgYFYOW-49">
          <mxGeometry relative="1" as="geometry" />
        </mxCell>
        <mxCell id="VwcqUrDGhT0xPsgYFYOW-57" value="manages" style="startArrow=none;endArrow=open;endSize=12;exitX=1;exitY=0.79;entryX=0.5;entryY=0;rounded=0;edgeStyle=orthogonalEdgeStyle;" edge="1" parent="WIyWlLk6GJQsqaUBKTNV-1" source="VwcqUrDGhT0xPsgYFYOW-0" target="VwcqUrDGhT0xPsgYFYOW-6">
          <mxGeometry relative="1" as="geometry" />
        </mxCell>
        <mxCell id="VwcqUrDGhT0xPsgYFYOW-58" value="provides images" style="startArrow=none;endArrow=open;endSize=12;exitX=0.5;exitY=1;entryX=0.72;entryY=0;rounded=0;edgeStyle=orthogonalEdgeStyle;" edge="1" parent="WIyWlLk6GJQsqaUBKTNV-1" source="VwcqUrDGhT0xPsgYFYOW-11" target="VwcqUrDGhT0xPsgYFYOW-16">
          <mxGeometry relative="1" as="geometry" />
        </mxCell>
        <mxCell id="VwcqUrDGhT0xPsgYFYOW-59" value="sends labeled images" style="curved=1;startArrow=none;endArrow=open;endSize=12;exitX=0.5;exitY=1;entryX=0.5;entryY=0;rounded=0;" edge="1" parent="WIyWlLk6GJQsqaUBKTNV-1" source="VwcqUrDGhT0xPsgYFYOW-16" target="VwcqUrDGhT0xPsgYFYOW-20">
          <mxGeometry relative="1" as="geometry">
            <Array as="points" />
          </mxGeometry>
        </mxCell>
        <mxCell id="VwcqUrDGhT0xPsgYFYOW-60" value="processes for" style="curved=1;startArrow=none;endArrow=open;endSize=12;exitX=0.5;exitY=1;entryX=0.5;entryY=0;rounded=0;" edge="1" parent="WIyWlLk6GJQsqaUBKTNV-1" source="VwcqUrDGhT0xPsgYFYOW-20" target="VwcqUrDGhT0xPsgYFYOW-25">
          <mxGeometry relative="1" as="geometry">
            <Array as="points" />
          </mxGeometry>
        </mxCell>
        <mxCell id="VwcqUrDGhT0xPsgYFYOW-61" value="passes features" style="curved=1;startArrow=none;endArrow=open;endSize=12;exitX=0.5;exitY=1;entryX=0.5;entryY=0;rounded=0;" edge="1" parent="WIyWlLk6GJQsqaUBKTNV-1" source="VwcqUrDGhT0xPsgYFYOW-25" target="VwcqUrDGhT0xPsgYFYOW-30">
          <mxGeometry relative="1" as="geometry">
            <Array as="points" />
          </mxGeometry>
        </mxCell>
        <mxCell id="VwcqUrDGhT0xPsgYFYOW-62" value="trains" style="startArrow=none;endArrow=open;endSize=12;exitX=0.5;exitY=1;entryX=0.04;entryY=0;rounded=0;edgeStyle=orthogonalEdgeStyle;" edge="1" parent="WIyWlLk6GJQsqaUBKTNV-1" source="VwcqUrDGhT0xPsgYFYOW-30" target="VwcqUrDGhT0xPsgYFYOW-36">
          <mxGeometry relative="1" as="geometry" />
        </mxCell>
        <mxCell id="VwcqUrDGhT0xPsgYFYOW-63" value="enables detection" style="curved=1;startArrow=none;endArrow=open;endSize=12;exitX=0.5;exitY=1;entryX=0.5;entryY=0;rounded=0;" edge="1" parent="WIyWlLk6GJQsqaUBKTNV-1" source="VwcqUrDGhT0xPsgYFYOW-36" target="VwcqUrDGhT0xPsgYFYOW-40">
          <mxGeometry relative="1" as="geometry">
            <Array as="points" />
          </mxGeometry>
        </mxCell>
        <mxCell id="VwcqUrDGhT0xPsgYFYOW-64" value="provides results" style="curved=1;startArrow=none;endArrow=open;endSize=12;exitX=0.5;exitY=1;entryX=0.5;entryY=0;rounded=0;" edge="1" parent="WIyWlLk6GJQsqaUBKTNV-1" source="VwcqUrDGhT0xPsgYFYOW-40" target="VwcqUrDGhT0xPsgYFYOW-45">
          <mxGeometry relative="1" as="geometry">
            <Array as="points" />
          </mxGeometry>
        </mxCell>
        <mxCell id="VwcqUrDGhT0xPsgYFYOW-65" value="exports visuals" style="startArrow=none;endArrow=open;endSize=12;exitX=0.5;exitY=1;entryX=0.75;entryY=0;rounded=0;edgeStyle=orthogonalEdgeStyle;" edge="1" parent="WIyWlLk6GJQsqaUBKTNV-1" source="VwcqUrDGhT0xPsgYFYOW-45" target="VwcqUrDGhT0xPsgYFYOW-49">
          <mxGeometry relative="1" as="geometry" />
        </mxCell>
        <mxCell id="VwcqUrDGhT0xPsgYFYOW-66" value="maintains" style="startArrow=none;endArrow=open;endSize=12;exitX=0.5;exitY=1;entryX=1;entryY=0.04;rounded=0;edgeStyle=orthogonalEdgeStyle;" edge="1" parent="WIyWlLk6GJQsqaUBKTNV-1" source="VwcqUrDGhT0xPsgYFYOW-6" target="VwcqUrDGhT0xPsgYFYOW-36">
          <mxGeometry relative="1" as="geometry" />
        </mxCell>
      </root>
    </mxGraphModel>
  </diagram>
</mxfile>
